<?xml version="1.0" standalone="no"?>
<!DOCTYPE svg PUBLIC "-//W3C//DTD SVG 20010904//EN"
 "http://www.w3.org/TR/2001/REC-SVG-20010904/DTD/svg10.dtd">
<svg version="1.0" xmlns="http://www.w3.org/2000/svg"
 width="1000.000000pt" height="1000.000000pt" viewBox="0 0 1000.000000 1000.000000"
 preserveAspectRatio="xMidYMid meet">
<metadata>
Created by potrace 1.14, written by Peter Selinger 2001-2017
</metadata>
<g transform="translate(0.000000,1000.000000) scale(0.100000,-0.100000)"
fill="#000000" stroke="none">
<path d="M3080 9059 c-30 -11 -59 -21 -65 -22 -5 -1 -14 -5 -20 -9 -160 -116
-216 -191 -248 -333 -18 -84 -17 -3693 2 -3770 28 -116 130 -249 235 -308 24
-13 71 -34 104 -45 58 -19 83 -20 1913 -20 l1854 0 70 25 c69 25 169 88 212
134 52 56 106 167 121 244 7 40 8 3671 0 3710 -13 70 -16 80 -31 118 -38 90
-118 179 -208 232 -119 69 21 65 -2030 65 -1833 -1 -1855 -1 -1909 -21z m3719
-448 c14 -21 12 -3573 -1 -3588 -15 -19 -3581 -19 -3596 0 -12 14 -16 3565 -4
3584 4 5 13 12 20 14 7 2 814 4 1793 4 1524 0 1781 -2 1788 -14z"/>
<path d="M4967 8324 c-1 -1 -38 -5 -82 -8 -44 -3 -91 -8 -105 -11 -13 -3 -42
-7 -63 -10 -22 -4 -49 -10 -61 -14 -11 -5 -24 -9 -29 -9 -24 -1 -74 -16 -85
-25 -7 -5 -15 -7 -19 -4 -3 4 -15 0 -27 -8 -11 -8 -26 -15 -32 -15 -7 0 -43
-14 -81 -32 -37 -17 -71 -31 -75 -30 -5 1 -8 -2 -8 -8 0 -5 -5 -10 -10 -10
-17 0 -181 -109 -245 -163 -206 -173 -366 -396 -456 -638 -17 -46 -32 -88 -33
-94 -1 -5 -5 -16 -9 -22 -5 -7 -6 -13 -3 -13 2 0 0 -15 -5 -32 -38 -125 -54
-380 -35 -538 5 -36 9 -77 11 -91 1 -14 4 -30 7 -35 3 -5 9 -27 13 -49 10 -57
62 -207 101 -291 117 -253 318 -480 559 -631 86 -54 263 -137 315 -148 8 -2
16 -4 18 -5 1 -2 5 -3 10 -4 4 -1 32 -9 62 -18 51 -15 106 -26 220 -44 95 -14
359 -7 445 13 11 2 34 6 50 9 57 10 170 46 267 86 87 36 265 130 278 147 3 4
21 18 40 31 70 47 216 190 286 280 51 66 114 157 114 166 0 2 11 22 24 43 14
21 22 42 19 45 -4 3 -1 6 5 6 7 0 12 4 12 10 0 5 11 33 24 62 49 110 100 296
109 405 2 22 6 44 8 49 12 24 -3 383 -17 406 -3 4 -6 20 -8 35 -7 51 -50 198
-76 258 -55 128 -145 287 -202 360 -84 107 -307 315 -337 315 -6 0 -11 4 -11
9 0 5 -9 13 -20 16 -11 3 -26 12 -33 20 -22 21 -194 105 -282 137 -80 29 -205
61 -280 72 -70 11 -263 25 -268 20z m230 -447 c137 -25 286 -86 402 -163 24
-16 51 -33 59 -39 20 -12 160 -151 187 -185 51 -63 109 -166 155 -275 74 -173
93 -398 55 -626 -6 -32 -51 -169 -59 -176 -3 -3 -11 -1 -18 5 -7 5 -38 23 -68
40 -30 16 -77 42 -105 57 -27 15 -111 62 -185 103 -216 120 -197 104 -190 160
15 122 -38 262 -134 355 -77 73 -198 116 -311 111 l-71 -3 -32 53 c-18 30 -32
58 -32 62 0 4 -6 15 -14 23 -7 9 -33 54 -57 101 -24 46 -48 89 -52 95 -26 33
-126 228 -122 236 7 10 153 55 203 63 19 2 36 7 39 9 6 7 309 1 350 -6z
m-1152 -677 c6 -4 33 -20 60 -35 28 -15 86 -48 130 -73 44 -24 107 -58 140
-76 33 -17 62 -34 65 -37 3 -3 20 -12 38 -20 17 -8 32 -17 32 -21 0 -5 7 -8
15 -8 27 0 55 -37 47 -62 -15 -45 -1 -155 29 -226 40 -93 105 -159 203 -208
80 -39 147 -52 233 -47 l58 4 33 -63 c19 -35 44 -81 56 -103 58 -104 81 -145
114 -205 20 -36 53 -94 73 -130 20 -36 34 -68 31 -72 -7 -7 -126 -44 -171 -54
-132 -27 -366 -25 -468 5 -18 5 -33 7 -33 4 0 -3 -7 0 -15 7 -9 7 -18 10 -21
8 -5 -6 -130 44 -196 78 -145 73 -313 227 -405 371 -56 88 -131 266 -135 320
0 5 -4 18 -9 31 -20 52 -29 253 -17 367 7 65 33 171 53 223 16 40 28 44 60 22z"/>
<path d="M2218 4115 c-2 -2 -25 -5 -53 -8 -152 -18 -299 -91 -380 -188 -22
-27 -45 -55 -51 -62 -12 -13 -57 -107 -57 -117 1 -3 -4 -16 -9 -30 -20 -54
-28 -183 -15 -262 13 -75 56 -179 97 -232 31 -41 98 -106 109 -106 6 0 11 -4
11 -9 0 -5 36 -28 80 -50 44 -22 80 -38 80 -36 0 2 19 -3 43 -11 86 -30 276
-35 382 -10 69 17 183 63 203 83 7 7 17 13 22 13 4 0 37 28 72 63 83 83 138
189 155 295 5 38 6 175 0 202 -14 64 -22 92 -45 140 -57 125 -165 223 -302
275 -36 13 -77 27 -92 30 -16 3 -40 8 -55 11 -27 5 -191 13 -195 9z m199 -218
c169 -44 273 -180 268 -352 -2 -90 -17 -141 -58 -202 -57 -83 -161 -146 -255
-156 -17 -2 -34 -6 -37 -8 -5 -6 -88 -3 -140 5 -77 11 -156 49 -210 101 -50
47 -92 112 -98 152 -1 10 -5 23 -8 28 -20 33 9 255 33 255 4 0 8 7 8 15 0 8
21 35 47 61 104 104 281 144 450 101z"/>
<path d="M4968 4115 c-2 -2 -30 -5 -63 -8 -64 -6 -74 -8 -145 -27 -134 -36
-253 -141 -275 -245 -27 -124 6 -236 90 -307 21 -18 98 -57 124 -64 9 -2 32
-7 51 -12 39 -9 192 -8 257 2 23 4 57 9 75 12 83 13 231 12 274 -1 44 -13 93
-54 95 -78 0 -7 2 -21 4 -31 4 -22 -18 -80 -37 -100 -29 -29 -125 -65 -192
-72 -110 -13 -320 -3 -371 16 -14 5 -29 9 -33 8 -4 -1 -14 1 -22 4 -8 3 -33
11 -55 18 -22 7 -77 29 -122 50 -77 36 -83 37 -97 21 -9 -10 -16 -22 -16 -28
0 -6 -4 -13 -8 -15 -4 -1 -24 -30 -45 -62 l-36 -59 93 -43 c88 -41 246 -89
326 -99 138 -19 264 -22 375 -11 217 23 379 114 444 249 27 57 30 70 28 152
-2 69 -8 99 -24 131 -41 78 -114 129 -225 159 -52 14 -295 15 -358 1 -39 -8
-130 -17 -192 -18 -135 -3 -210 72 -163 163 19 36 97 75 175 87 80 12 302 3
317 -12 4 -3 20 -6 37 -7 17 0 76 -15 131 -33 55 -19 100 -33 101 -32 1 0 22
41 48 89 l47 88 -44 19 c-24 11 -53 21 -63 23 -10 2 -26 7 -34 10 -15 7 -98
27 -135 33 -11 1 -29 5 -40 7 -51 12 -289 29 -297 22z"/>
<path d="M7617 4114 c-1 -1 -28 -4 -60 -8 -152 -16 -288 -78 -351 -161 -25
-32 -45 -73 -42 -86 0 -3 -4 -12 -10 -20 -6 -8 -12 -34 -13 -58 -1 -24 -2 -47
-3 -50 0 -3 0 -8 2 -11 1 -3 3 -18 5 -35 14 -104 131 -208 261 -232 73 -13
261 -6 344 13 14 3 75 7 137 9 99 3 116 1 154 -18 24 -12 52 -34 62 -49 21
-29 25 -81 8 -102 -6 -7 -8 -15 -5 -18 11 -11 -70 -66 -120 -82 -79 -25 -261
-40 -303 -24 -14 4 -23 4 -23 -3 0 -6 -4 -8 -8 -5 -7 4 -104 22 -167 31 -29 4
-194 69 -239 94 -21 12 -42 19 -46 14 -16 -19 -110 -164 -110 -171 0 -17 236
-113 315 -128 11 -2 31 -6 45 -9 120 -25 303 -34 428 -21 47 5 151 28 192 42
8 3 15 4 15 3 0 -2 29 13 65 32 81 43 145 108 178 179 21 44 26 71 26 135 1
70 -3 88 -29 139 -16 32 -43 69 -60 83 -38 33 -115 67 -180 81 -48 11 -251 10
-325 -1 -222 -33 -324 -22 -367 42 -58 85 21 167 182 189 87 12 237 6 315 -13
3 -1 25 -5 49 -9 24 -5 75 -19 115 -33 39 -13 77 -25 84 -26 7 -1 30 30 50 68
20 39 40 72 45 73 4 2 7 11 7 20 0 27 -177 86 -315 106 -16 2 -30 5 -30 6 0 6
-271 20 -278 14z"/>
<path d="M3490 3994 c-27 -59 -50 -108 -50 -110 0 -2 -20 -45 -45 -95 -25 -51
-45 -96 -45 -102 0 -6 -7 -18 -16 -28 -8 -9 -17 -23 -18 -31 -1 -7 -26 -62
-54 -121 -29 -60 -52 -110 -52 -112 0 -2 -32 -70 -71 -152 -39 -81 -82 -172
-95 -201 l-23 -53 117 3 117 3 44 91 44 91 323 1 324 0 45 -94 45 -94 115 0
c63 0 115 3 115 8 0 4 -13 34 -29 67 -16 33 -71 146 -121 250 -51 105 -122
251 -158 325 -36 74 -67 137 -67 140 -1 3 -36 76 -78 163 l-76 157 -120 0
-121 0 -50 -106z m242 -281 c1 -7 4 -13 7 -13 3 0 17 -27 31 -60 14 -33 28
-60 33 -60 4 0 7 -5 7 -11 0 -6 11 -33 25 -61 14 -27 25 -56 25 -64 0 -8 4
-14 9 -14 8 0 24 -45 22 -60 -1 -6 -430 -8 -447 -3 -8 3 0 29 22 74 19 38 34
71 34 74 0 2 15 37 34 77 19 40 37 80 40 88 3 8 10 22 15 30 5 8 24 46 42 84
l32 70 34 -70 c19 -38 35 -75 35 -81z"/>
<path d="M5800 4095 c0 -3 6 -16 14 -28 8 -12 26 -42 40 -67 65 -112 109 -188
128 -220 11 -19 32 -55 46 -80 13 -25 39 -70 58 -100 18 -30 69 -118 113 -195
l81 -139 -1 -121 c0 -66 0 -128 0 -137 1 -15 14 -17 113 -15 l113 2 1 140 0
140 79 135 c43 74 83 137 87 138 4 2 8 10 8 19 0 8 8 27 19 41 10 15 30 47 43
72 14 25 51 90 83 145 89 156 101 177 130 228 l27 47 -129 0 -128 0 -43 -82
c-23 -46 -61 -119 -85 -163 -24 -44 -67 -125 -96 -180 -86 -160 -106 -195
-112 -195 -5 0 -35 57 -38 75 -1 6 -8 17 -15 25 -7 8 -35 56 -61 105 -27 50
-68 126 -92 170 -24 44 -51 96 -61 115 -9 19 -19 37 -22 40 -3 3 -15 23 -26
45 l-22 40 -126 3 c-69 1 -126 0 -126 -3z"/>
<path d="M6113 1941 l0 -589 105 2 105 1 0 585 0 585 -105 3 -106 3 1 -590z"/>
<path d="M7374 2519 c-49 -14 -79 -53 -79 -106 0 -38 5 -49 33 -74 18 -16 43
-30 57 -30 14 -1 35 -2 48 -3 62 -5 131 51 129 106 0 17 -6 42 -12 53 -25 47
-107 72 -176 54z"/>
<path d="M617 2474 c-1 -1 -29 -4 -62 -7 -33 -3 -60 -6 -60 -7 0 -2 -15 -5
-57 -13 -14 -3 -36 -10 -47 -17 -12 -6 -21 -8 -21 -5 0 20 -194 -109 -234
-156 -133 -157 -166 -388 -84 -583 58 -136 186 -249 342 -301 74 -25 93 -29
191 -41 52 -6 220 -5 237 1 7 3 27 7 43 9 78 10 223 61 273 96 21 15 21 15
-28 95 -28 44 -55 79 -62 77 -7 -1 -29 -9 -48 -17 -86 -36 -97 -40 -145 -49
-16 -3 -41 -8 -55 -11 -32 -7 -156 -7 -195 -1 -83 14 -128 27 -157 47 -14 11
-30 19 -36 19 -20 0 -99 80 -124 127 -30 55 -40 94 -43 173 -9 285 303 437
672 328 40 -11 78 -27 84 -34 9 -11 13 -11 25 1 8 7 14 16 14 19 0 3 16 30 35
61 20 30 38 61 41 69 8 21 -137 82 -241 101 -22 4 -51 9 -65 12 -24 4 -189 10
-193 7z"/>
<path d="M6718 2438 c-2 -7 -3 -66 -3 -130 l2 -117 -101 -3 -101 -3 -1 -65 c0
-36 2 -70 4 -77 2 -8 28 -12 75 -11 40 0 84 0 98 -1 l25 -1 0 -331 c-1 -209 3
-334 9 -339 6 -4 53 -7 105 -6 l95 1 1 333 c0 183 4 335 7 339 4 3 49 6 102 6
l95 0 0 78 0 79 -100 0 c-73 0 -100 3 -101 13 0 6 -1 65 -1 130 l0 117 -103 0
c-73 0 -104 -4 -107 -12z"/>
<path d="M1797 2204 c-1 -1 -26 -5 -56 -9 -82 -10 -195 -55 -241 -95 -14 -12
-32 -27 -41 -34 -27 -19 -89 -112 -104 -156 -1 -3 -6 -14 -11 -25 -13 -31 -10
-206 6 -240 7 -16 14 -32 15 -35 7 -28 47 -85 91 -128 48 -46 154 -108 202
-117 9 -2 17 -4 17 -5 0 -5 53 -12 140 -16 87 -5 129 -2 230 19 42 9 155 75
198 116 50 47 99 126 114 182 14 53 12 192 -4 228 -8 20 -16 41 -17 48 -4 26
-71 110 -118 149 -56 48 -177 99 -258 109 -56 8 -158 13 -163 9z m204 -213
c94 -44 142 -117 145 -216 2 -74 -14 -113 -67 -166 -56 -56 -117 -80 -210 -84
-143 -5 -245 48 -294 151 -21 45 -25 66 -22 107 3 29 6 53 7 55 2 1 3 5 4 10
14 63 104 141 191 163 57 15 196 4 246 -20z"/>
<path d="M3046 2203 c-1 -2 -18 -5 -37 -7 -59 -9 -75 -14 -147 -44 l-69 -29 1
31 1 31 -93 5 c-52 3 -99 2 -106 -2 -9 -5 -11 -109 -11 -420 l0 -413 98 -1
c81 -1 99 1 105 15 4 9 7 137 7 284 l-1 268 48 32 c69 44 143 65 225 62 37 -1
78 -4 90 -8 80 -22 144 -89 171 -182 3 -11 7 -118 8 -238 2 -120 6 -221 8
-226 3 -4 49 -8 103 -7 l98 1 0 255 c0 221 -2 262 -18 310 -60 181 -205 278
-420 284 -32 0 -60 0 -61 -1z"/>
<path d="M4119 2205 c-4 -3 -15 -7 -25 -9 -11 -2 -39 -10 -64 -17 -25 -7 -50
-13 -56 -15 -20 -4 -97 -56 -121 -82 -64 -70 -86 -198 -48 -273 50 -97 145
-137 320 -133 61 2 124 5 140 7 38 6 89 9 138 8 68 -2 105 -70 65 -119 -15
-17 -58 -39 -94 -48 -45 -10 -254 -13 -260 -3 -3 5 -10 7 -15 4 -14 -9 -139
25 -201 55 -57 27 -78 25 -78 -7 0 -7 -4 -13 -10 -13 -5 0 -10 -6 -10 -13 0
-7 -11 -29 -25 -49 -14 -20 -25 -40 -25 -43 0 -3 24 -17 54 -30 87 -39 210
-71 301 -80 57 -6 216 -6 245 -1 37 7 72 14 100 20 58 13 151 69 190 114 23
26 41 50 41 54 0 4 6 22 13 40 19 47 11 141 -15 189 -57 99 -190 138 -399 114
-128 -14 -214 -13 -242 3 -16 9 -28 19 -29 22 -5 32 -4 50 2 50 3 0 9 9 12 20
5 21 50 44 103 55 46 9 178 7 226 -4 23 -5 54 -12 68 -15 14 -3 47 -12 74 -21
27 -8 51 -13 53 -11 2 2 13 30 24 62 12 32 26 65 31 72 18 21 -1 31 -108 57
-143 35 -309 51 -346 33 -10 -5 -18 -4 -20 3 -2 6 -6 8 -9 4z"/>
<path d="M8247 2198 c-6 -3 -14 -5 -18 -3 -10 7 -130 -30 -177 -54 l-42 -21 0
34 0 35 -100 3 c-98 3 -101 2 -107 -20 -3 -12 -3 -34 -1 -47 3 -14 2 -25 -1
-25 -7 0 -5 -160 2 -167 3 -2 2 -17 -3 -32 -4 -15 -4 -35 1 -44 5 -9 6 -18 0
-21 -4 -3 -5 -23 -2 -43 4 -21 4 -54 1 -73 -3 -19 -3 -50 1 -67 4 -18 4 -33 0
-33 -3 0 -5 -37 -3 -82 2 -46 3 -94 2 -108 -2 -25 -1 -39 2 -64 1 -10 25 -13
105 -13 l103 0 2 285 3 286 40 27 c127 83 292 90 398 16 33 -22 73 -83 83
-124 4 -15 9 -32 13 -38 3 -5 6 -104 6 -220 0 -115 4 -215 8 -222 5 -8 38 -11
105 -10 l97 2 0 235 c0 248 -10 322 -54 409 -40 76 -145 158 -236 185 -62 18
-207 27 -228 14z"/>
<path d="M9427 2204 c-1 -1 -24 -4 -52 -8 -105 -13 -196 -51 -265 -113 -87
-78 -130 -167 -136 -282 -9 -178 70 -313 229 -391 45 -22 94 -41 110 -42 15
-1 27 -5 27 -8 0 -7 198 -4 235 4 33 7 92 24 115 33 8 4 17 7 20 8 3 0 20 9
38 18 35 19 35 19 32 -33 -5 -85 -59 -152 -160 -199 -50 -23 -66 -25 -180 -24
-69 0 -134 3 -145 6 -11 3 -47 12 -80 21 -32 8 -60 14 -61 13 -10 -13 -44 -90
-44 -101 0 -8 -4 -16 -9 -18 -5 -1 -12 -15 -16 -29 -6 -26 -4 -27 62 -43 345
-81 627 -33 752 130 42 55 78 145 87 215 6 42 9 711 5 814 -1 19 -7 20 -106
17 -74 -2 -105 -7 -104 -15 5 -44 1 -46 -48 -27 -73 29 -87 33 -103 36 -8 1
-31 5 -50 9 -32 7 -148 13 -153 9z m209 -205 c8 -6 14 -9 14 -5 0 9 117 -51
125 -64 6 -9 10 -219 6 -267 -2 -28 -106 -95 -166 -108 -92 -18 -120 -22 -157
-19 -153 13 -258 104 -263 229 -5 117 58 198 190 242 48 16 229 10 251 -8z"/>
<path d="M4901 2185 c-9 -12 -6 -467 3 -541 14 -120 102 -232 213 -272 82 -29
227 -44 279 -29 11 3 35 8 54 11 41 7 92 25 137 49 42 23 43 22 43 -17 l0 -33
108 1 c89 1 106 4 104 16 -4 16 -4 87 1 135 1 17 -1 45 -4 63 -4 17 -3 32 1
32 5 0 5 12 1 28 -5 15 -5 36 -1 47 4 11 4 34 -1 52 -4 18 -3 33 1 33 5 0 5
12 2 28 -4 15 -6 41 -5 57 6 66 5 133 -1 144 -4 6 -3 11 3 11 6 0 7 11 2 28
-6 24 -6 69 -1 97 1 6 2 22 1 38 l-1 27 -105 0 -105 0 0 -283 c0 -271 -1 -283
-20 -300 -11 -9 -23 -17 -27 -17 -3 0 -14 -6 -22 -14 -36 -31 -131 -53 -213
-50 -127 5 -196 50 -229 149 -9 27 -13 113 -15 270 -1 127 -2 233 -3 237 -2
11 -192 14 -200 3z"/>
<path d="M7322 2071 c0 -65 -2 -123 -6 -130 -4 -6 -4 -11 1 -11 8 0 9 -528 2
-560 -3 -13 13 -15 104 -16 l107 -1 0 131 c1 138 1 591 0 664 l0 42 -105 0
-104 0 1 -119z"/>
</g>
</svg>
