<svg xmlns="http://www.w3.org/2000/svg" version="1.1" xmlns:xlink="http://www.w3.org/1999/xlink" xmlns:svgjs="http://svgjs.dev/svgjs" width="1000" height="1000" viewBox="0 0 1000 1000"><rect width="1000" height="1000" fill="#ffffff"></rect><g transform="matrix(0.7,0,0,0.7,149.85848771112802,214.2815384615384)"><svg viewBox="0 0 302 247" data-background-color="#3d3839" preserveAspectRatio="xMidYMid meet" height="817" width="1000" xmlns="http://www.w3.org/2000/svg" xmlns:xlink="http://www.w3.org/1999/xlink"><g id="tight-bounds" transform="matrix(1,0,0,1,0.06105244462762016,-0.09999999999999432)"><svg viewBox="0 0 301.87789511074476 247.2" height="247.2" width="301.87789511074476"><g><svg viewBox="0 0 395.52000000000004 323.8810975680477" height="247.2" width="301.87789511074476"><g transform="matrix(1,0,0,1,0,194.0046999258348)"><svg viewBox="0 0 395.52000000000004 129.8763976422129" height="129.8763976422129" width="395.52000000000004"><g id="textblocktransform"><svg viewBox="0 0 395.52000000000004 129.8763976422129" height="129.8763976422129" width="395.52000000000004" id="textblock"><g><svg viewBox="0 0 395.52000000000004 129.8763976422129" height="129.8763976422129" width="395.52000000000004"><g transform="matrix(1,0,0,1,0,0)"><svg width="395.52000000000004" viewBox="174.98999999999998 -38.67 343.77999999999986 108.05" height="129.8763976422129" data-palette-color="#ffffff"><svg></svg><svg></svg><g class="wordmark-text-0" data-fill-palette-color="primary" id="text-0"><path transform="translate(228.23,0)" d="M3.17-19.19v0c0-2.88 0.53-5.517 1.59-7.91 1.06-2.393 2.547-4.447 4.46-6.16 1.907-1.72 4.2-3.053 6.88-4 2.68-0.94 5.647-1.41 8.9-1.41v0c3.24 0 6.203 0.47 8.89 1.41 2.687 0.947 4.983 2.28 6.89 4 1.913 1.713 3.4 3.767 4.46 6.16 1.06 2.393 1.59 5.03 1.59 7.91v0c0 2.9-0.53 5.557-1.59 7.97-1.06 2.42-2.547 4.5-4.46 6.24-1.907 1.74-4.203 3.093-6.89 4.06-2.687 0.973-5.65 1.46-8.89 1.46v0c-3.253 0-6.22-0.487-8.9-1.46-2.68-0.967-4.973-2.32-6.88-4.06-1.913-1.74-3.4-3.82-4.46-6.24-1.06-2.413-1.59-5.07-1.59-7.97zM10.91-19.19v0c0 1.967 0.357 3.74 1.07 5.32 0.707 1.58 1.69 2.927 2.95 4.04 1.26 1.12 2.75 1.98 4.47 2.58 1.713 0.6 3.58 0.9 5.6 0.9v0c2.02 0 3.887-0.3 5.6-0.9 1.72-0.6 3.207-1.46 4.46-2.58 1.253-1.113 2.237-2.46 2.95-4.04 0.72-1.58 1.08-3.353 1.08-5.32v0c0-1.967-0.36-3.733-1.08-5.3-0.713-1.56-1.697-2.88-2.95-3.96-1.253-1.087-2.74-1.913-4.46-2.48-1.713-0.573-3.58-0.86-5.6-0.86v0c-2.02 0-3.887 0.287-5.6 0.86-1.72 0.567-3.21 1.393-4.47 2.48-1.26 1.08-2.243 2.4-2.95 3.96-0.713 1.567-1.07 3.333-1.07 5.3zM50.51 0l17.92-38.16h8.21l18.45 38.16h-8.13l-3.05-6.42h-22.29l-2.95 6.42zM64.58-12.79h16.28l-8.25-17.34zM98.68-5.08l4.13-6.27c1.38 0.78 2.783 1.483 4.21 2.11 1.427 0.627 2.903 1.157 4.43 1.59 1.533 0.427 3.14 0.753 4.82 0.98 1.687 0.233 3.483 0.35 5.39 0.35v0c2.293 0 4.243-0.15 5.85-0.45 1.613-0.307 2.93-0.723 3.95-1.25 1.013-0.527 1.753-1.157 2.22-1.89 0.467-0.733 0.7-1.53 0.7-2.39v0c0-1.387-0.58-2.483-1.74-3.29-1.153-0.807-2.937-1.21-5.35-1.21v0c-1.053 0-2.167 0.07-3.34 0.21-1.173 0.14-2.357 0.29-3.55 0.45-1.2 0.167-2.38 0.317-3.54 0.45-1.167 0.14-2.263 0.21-3.29 0.21v0c-1.707 0-3.347-0.22-4.92-0.66-1.567-0.44-2.957-1.1-4.17-1.98-1.213-0.873-2.177-1.97-2.89-3.29-0.72-1.32-1.08-2.86-1.08-4.62v0c0-1.04 0.143-2.073 0.43-3.1 0.287-1.02 0.743-2 1.37-2.94 0.627-0.933 1.437-1.803 2.43-2.61 0.993-0.807 2.193-1.503 3.6-2.09 1.407-0.587 3.033-1.047 4.88-1.38 1.847-0.333 3.95-0.5 6.31-0.5v0c1.707 0 3.423 0.093 5.15 0.28 1.727 0.187 3.407 0.453 5.04 0.8 1.64 0.34 3.217 0.75 4.73 1.23 1.513 0.48 2.92 1.013 4.22 1.6v0l-3.39 6.25c-1.073-0.473-2.23-0.91-3.47-1.31-1.233-0.4-2.527-0.743-3.88-1.03-1.353-0.293-2.75-0.527-4.19-0.7-1.44-0.173-2.907-0.26-4.4-0.26v0c-2.133 0-3.89 0.157-5.27 0.47-1.373 0.307-2.467 0.7-3.28 1.18-0.813 0.48-1.38 1.017-1.7 1.61-0.313 0.593-0.47 1.183-0.47 1.77v0c0 1.14 0.513 2.073 1.54 2.8 1.02 0.72 2.58 1.08 4.68 1.08v0c0.847 0 1.82-0.06 2.92-0.18 1.1-0.12 2.257-0.253 3.47-0.4 1.213-0.147 2.45-0.28 3.71-0.4 1.26-0.127 2.483-0.19 3.67-0.19v0c2.247 0 4.237 0.253 5.97 0.76 1.733 0.507 3.187 1.227 4.36 2.16 1.173 0.933 2.06 2.063 2.66 3.39 0.6 1.327 0.9 2.813 0.9 4.46v0c0 2.193-0.507 4.15-1.52 5.87-1.02 1.72-2.47 3.17-4.35 4.35-1.88 1.18-4.147 2.073-6.8 2.68-2.653 0.613-5.607 0.92-8.86 0.92v0c-2.147 0-4.247-0.137-6.3-0.41-2.047-0.267-4.01-0.647-5.89-1.14-1.88-0.5-3.67-1.097-5.37-1.79-1.707-0.687-3.283-1.447-4.73-2.28zM162.72 0v-9.45l-16.68-28.71h8.77l11.74 21.7 11.6-21.7h8.76l-16.45 28.66v9.5zM190.43-5.08l4.13-6.27c1.38 0.78 2.783 1.483 4.21 2.11 1.42 0.627 2.897 1.157 4.43 1.59 1.527 0.427 3.133 0.753 4.82 0.98 1.687 0.233 3.48 0.35 5.38 0.35v0c2.3 0 4.253-0.15 5.86-0.45 1.613-0.307 2.93-0.723 3.95-1.25 1.013-0.527 1.753-1.157 2.22-1.89 0.46-0.733 0.69-1.53 0.69-2.39v0c0-1.387-0.577-2.483-1.73-3.29-1.153-0.807-2.937-1.21-5.35-1.21v0c-1.053 0-2.167 0.07-3.34 0.21-1.173 0.14-2.357 0.29-3.55 0.45-1.2 0.167-2.38 0.317-3.54 0.45-1.167 0.14-2.263 0.21-3.29 0.21v0c-1.707 0-3.347-0.22-4.92-0.66-1.567-0.44-2.957-1.1-4.17-1.98-1.213-0.873-2.18-1.97-2.9-3.29-0.713-1.32-1.07-2.86-1.07-4.62v0c0-1.04 0.143-2.073 0.43-3.1 0.287-1.02 0.743-2 1.37-2.94 0.627-0.933 1.433-1.803 2.42-2.61 0.993-0.807 2.197-1.503 3.61-2.09 1.407-0.587 3.033-1.047 4.88-1.38 1.847-0.333 3.95-0.5 6.31-0.5v0c1.707 0 3.423 0.093 5.15 0.28 1.727 0.187 3.407 0.453 5.04 0.8 1.64 0.34 3.217 0.75 4.73 1.23 1.513 0.48 2.92 1.013 4.22 1.6v0l-3.39 6.25c-1.073-0.473-2.23-0.91-3.47-1.31-1.24-0.4-2.533-0.743-3.88-1.03-1.353-0.293-2.75-0.527-4.19-0.7-1.44-0.173-2.91-0.26-4.41-0.26v0c-2.127 0-3.88 0.157-5.26 0.47-1.373 0.307-2.467 0.7-3.28 1.18-0.813 0.48-1.38 1.017-1.7 1.61-0.313 0.593-0.47 1.183-0.47 1.77v0c0 1.14 0.51 2.073 1.53 2.8 1.027 0.72 2.59 1.08 4.69 1.08v0c0.847 0 1.82-0.06 2.92-0.18 1.1-0.12 2.257-0.253 3.47-0.4 1.207-0.147 2.443-0.28 3.71-0.4 1.26-0.127 2.483-0.19 3.67-0.19v0c2.247 0 4.237 0.253 5.97 0.76 1.733 0.507 3.187 1.227 4.36 2.16 1.173 0.933 2.06 2.063 2.66 3.39 0.6 1.327 0.9 2.813 0.9 4.46v0c0 2.193-0.507 4.15-1.52 5.87-1.02 1.72-2.47 3.17-4.35 4.35-1.88 1.18-4.147 2.073-6.8 2.68-2.653 0.613-5.607 0.92-8.86 0.92v0c-2.147 0-4.247-0.137-6.3-0.41-2.053-0.267-4.02-0.647-5.9-1.14-1.873-0.5-3.663-1.097-5.37-1.79-1.7-0.687-3.273-1.447-4.72-2.28z" fill="#000000" fill-rule="nonzero" stroke="none" stroke-width="1" stroke-linecap="butt" stroke-linejoin="miter" stroke-miterlimit="10" stroke-dasharray="" stroke-dashoffset="0" font-family="none" font-weight="none" font-size="none" text-anchor="none" style="mix-blend-mode: normal" data-fill-palette-color="primary" opacity="1"></path><path transform="translate(171.89,56.44)" d="M3.1-19.31v0c0-2.72 0.513-5.257 1.54-7.61 1.027-2.347 2.51-4.387 4.45-6.12 1.947-1.733 4.323-3.097 7.13-4.09 2.807-0.993 5.987-1.49 9.54-1.49v0c3.107 0 5.957 0.313 8.55 0.94 2.6 0.627 5.013 1.583 7.24 2.87v0l-3.56 5.85c-0.667-0.433-1.437-0.823-2.31-1.17-0.867-0.34-1.793-0.627-2.78-0.86-0.987-0.24-2.003-0.423-3.05-0.55-1.053-0.133-2.093-0.2-3.12-0.2v0c-2.473 0-4.677 0.307-6.61 0.92-1.94 0.607-3.573 1.46-4.9 2.56-1.327 1.1-2.337 2.41-3.03 3.93-0.687 1.52-1.03 3.193-1.03 5.02v0c0 1.887 0.357 3.62 1.07 5.2 0.72 1.58 1.757 2.943 3.11 4.09 1.36 1.147 3.02 2.04 4.98 2.68 1.967 0.647 4.187 0.97 6.66 0.97v0c1.12 0 2.233-0.083 3.34-0.25 1.107-0.16 2.177-0.383 3.21-0.67 1.033-0.28 2.03-0.62 2.99-1.02 0.96-0.4 1.857-0.837 2.69-1.31v0l3.56 5.86c-2.08 1.333-4.487 2.38-7.22 3.14-2.733 0.753-5.64 1.13-8.72 1.13v0c-3.92 0-7.363-0.507-10.33-1.52-2.96-1.02-5.433-2.42-7.42-4.2-1.987-1.787-3.48-3.887-4.48-6.3-1-2.42-1.5-5.02-1.5-7.8zM48.66-14.4v0c0-2.067 0.417-4.003 1.25-5.81 0.84-1.807 2.037-3.387 3.59-4.74 1.553-1.353 3.433-2.42 5.64-3.2 2.207-0.78 4.687-1.17 7.44-1.17v0c2.747 0 5.223 0.39 7.43 1.17 2.207 0.78 4.087 1.847 5.64 3.2 1.553 1.353 2.75 2.933 3.59 4.74 0.84 1.807 1.26 3.743 1.26 5.81v0c0 2.067-0.42 4.003-1.26 5.81-0.84 1.807-2.037 3.383-3.59 4.73-1.553 1.353-3.433 2.42-5.64 3.2-2.207 0.78-4.683 1.17-7.43 1.17v0c-2.753 0-5.233-0.39-7.44-1.17-2.207-0.78-4.087-1.847-5.64-3.2-1.553-1.347-2.75-2.923-3.59-4.73-0.833-1.807-1.25-3.743-1.25-5.81zM56.25-14.4v0c0 1.153 0.233 2.247 0.7 3.28 0.46 1.033 1.133 1.943 2.02 2.73 0.887 0.793 1.97 1.42 3.25 1.88 1.28 0.467 2.733 0.7 4.36 0.7v0c1.627 0 3.08-0.233 4.36-0.7 1.273-0.46 2.353-1.087 3.24-1.88 0.887-0.787 1.563-1.697 2.03-2.73 0.46-1.033 0.69-2.127 0.69-3.28v0c0-1.16-0.23-2.26-0.69-3.3-0.467-1.04-1.143-1.957-2.03-2.75-0.887-0.787-1.967-1.413-3.24-1.88-1.28-0.46-2.733-0.69-4.36-0.69v0c-1.627 0-3.08 0.23-4.36 0.69-1.28 0.467-2.363 1.093-3.25 1.88-0.887 0.793-1.56 1.71-2.02 2.75-0.467 1.04-0.7 2.14-0.7 3.3zM91.8 0v-28.81h7.22v2.44c1.92-1.087 3.757-1.85 5.51-2.29 1.747-0.44 3.46-0.66 5.14-0.66v0c2.193 0 4.227 0.32 6.1 0.96 1.873 0.647 3.493 1.603 4.86 2.87 1.367 1.273 2.437 2.857 3.21 4.75 0.773 1.893 1.16 4.087 1.16 6.58v0 14.16h-7.2v-12.99c0-1.58-0.223-2.99-0.67-4.23-0.447-1.247-1.09-2.297-1.93-3.15-0.84-0.86-1.857-1.513-3.05-1.96-1.2-0.447-2.54-0.67-4.02-0.67v0c-0.78 0-1.58 0.083-2.4 0.25-0.827 0.16-1.633 0.39-2.42 0.69-0.793 0.3-1.553 0.673-2.28 1.12-0.733 0.453-1.403 0.963-2.01 1.53v0 19.41zM131.88-3.37l3.13-5.47c1.953 1.173 4.103 2.037 6.45 2.59 2.34 0.553 4.74 0.83 7.2 0.83v0c1.66 0 3.043-0.113 4.15-0.34 1.107-0.227 1.993-0.52 2.66-0.88 0.667-0.36 1.137-0.767 1.41-1.22 0.28-0.453 0.42-0.917 0.42-1.39v0c0-0.687-0.297-1.273-0.89-1.76-0.593-0.487-1.573-0.73-2.94-0.73v0c-0.64 0-1.323 0.04-2.05 0.12-0.733 0.08-1.503 0.167-2.31 0.26-0.807 0.087-1.647 0.17-2.52 0.25-0.867 0.08-1.747 0.12-2.64 0.12v0c-1.953 0-3.62-0.21-5-0.63-1.373-0.427-2.49-1.003-3.35-1.73-0.867-0.733-1.493-1.6-1.88-2.6-0.393-1.007-0.59-2.087-0.59-3.24v0c0-1.467 0.343-2.817 1.03-4.05 0.68-1.24 1.653-2.31 2.92-3.21 1.273-0.907 2.81-1.61 4.61-2.11 1.793-0.507 3.8-0.76 6.02-0.76v0c1.153 0 2.36 0.07 3.62 0.21 1.26 0.133 2.5 0.317 3.72 0.55 1.22 0.227 2.393 0.49 3.52 0.79 1.12 0.3 2.113 0.62 2.98 0.96v0l-2.27 5.62c-1.84-0.687-3.677-1.227-5.51-1.62-1.827-0.4-3.71-0.6-5.65-0.6v0c-1.353 0-2.497 0.1-3.43 0.3-0.933 0.207-1.693 0.477-2.28 0.81-0.587 0.333-1.013 0.717-1.28 1.15-0.273 0.427-0.41 0.877-0.41 1.35v0c0 0.34 0.07 0.65 0.21 0.93 0.14 0.273 0.367 0.513 0.68 0.72 0.32 0.2 0.737 0.353 1.25 0.46 0.513 0.107 1.143 0.16 1.89 0.16v0c0.687 0 1.41-0.04 2.17-0.12 0.767-0.08 1.567-0.167 2.4-0.26 0.827-0.087 1.683-0.17 2.57-0.25 0.887-0.087 1.793-0.13 2.72-0.13v0c1.727 0 3.237 0.203 4.53 0.61 1.293 0.407 2.363 0.977 3.21 1.71 0.847 0.733 1.483 1.597 1.91 2.59 0.42 0.993 0.63 2.077 0.63 3.25v0c0 1.513-0.35 2.92-1.05 4.22-0.7 1.3-1.74 2.427-3.12 3.38-1.387 0.953-3.11 1.7-5.17 2.24-2.053 0.533-4.433 0.8-7.14 0.8v0c-1.66 0-3.263-0.1-4.81-0.3-1.547-0.207-3.02-0.483-4.42-0.83-1.4-0.353-2.713-0.767-3.94-1.24-1.227-0.467-2.347-0.97-3.36-1.51zM171.39-13.75v-15.08h7.2v14.06c0 1.333 0.147 2.55 0.44 3.65 0.293 1.1 0.793 2.04 1.5 2.82 0.707 0.78 1.65 1.387 2.83 1.82 1.18 0.433 2.65 0.65 4.41 0.65v0c0.827 0 1.67-0.09 2.53-0.27 0.853-0.18 1.67-0.43 2.45-0.75 0.78-0.313 1.507-0.69 2.18-1.13 0.68-0.44 1.263-0.92 1.75-1.44v0-19.41h7.23v28.83h-7.23v-2.47c-1.773 1.06-3.557 1.817-5.35 2.27-1.787 0.46-3.487 0.69-5.1 0.69v0c-2.633 0-4.89-0.317-6.77-0.95-1.88-0.64-3.42-1.563-4.62-2.77-1.193-1.213-2.067-2.703-2.62-4.47-0.553-1.767-0.83-3.783-0.83-6.05zM213.28 0v-40.5h7.23v40.5zM234.11 0v-23.39h-6.96v-5.42h6.96v-8.96h7.22v8.96h6.96v5.42h-6.96v23.39zM258.52-32.74v0c-0.713 0-1.36-0.1-1.94-0.3-0.58-0.207-1.073-0.483-1.48-0.83-0.407-0.353-0.72-0.763-0.94-1.23-0.22-0.46-0.33-0.95-0.33-1.47v0c0-0.54 0.11-1.04 0.33-1.5 0.22-0.467 0.533-0.87 0.94-1.21 0.407-0.34 0.9-0.613 1.48-0.82 0.58-0.207 1.227-0.31 1.94-0.31v0c0.733 0 1.39 0.103 1.97 0.31 0.573 0.207 1.063 0.48 1.47 0.82 0.407 0.34 0.72 0.743 0.94 1.21 0.22 0.46 0.33 0.96 0.33 1.5v0c0 0.52-0.11 1.01-0.33 1.47-0.22 0.467-0.533 0.877-0.94 1.23-0.407 0.347-0.897 0.623-1.47 0.83-0.58 0.2-1.237 0.3-1.97 0.3zM254.91 0v-28.81h7.22v28.81zM271.39 0v-28.81h7.22v2.44c1.92-1.087 3.757-1.85 5.51-2.29 1.747-0.44 3.46-0.66 5.14-0.66v0c2.193 0 4.227 0.32 6.1 0.96 1.873 0.647 3.493 1.603 4.86 2.87 1.367 1.273 2.437 2.857 3.21 4.75 0.773 1.893 1.16 4.087 1.16 6.58v0 14.16h-7.2v-12.99c0-1.58-0.223-2.99-0.67-4.23-0.453-1.247-1.097-2.297-1.93-3.15-0.84-0.86-1.857-1.513-3.05-1.96-1.2-0.447-2.54-0.67-4.02-0.67v0c-0.78 0-1.583 0.083-2.41 0.25-0.82 0.16-1.623 0.39-2.41 0.69-0.793 0.3-1.553 0.673-2.28 1.12-0.733 0.453-1.403 0.963-2.01 1.53v0 19.41zM315.28 10.99l2.69-6.11c0.913 0.327 1.84 0.6 2.78 0.82 0.947 0.22 1.863 0.4 2.75 0.54 0.887 0.14 1.737 0.237 2.55 0.29 0.813 0.06 1.537 0.09 2.17 0.09v0c1.92 0 3.593-0.233 5.02-0.7 1.427-0.467 2.613-1.09 3.56-1.87 0.953-0.78 1.667-1.687 2.14-2.72 0.473-1.033 0.71-2.127 0.71-3.28v0-1.25c-0.62 0.427-1.343 0.833-2.17 1.22-0.833 0.393-1.747 0.737-2.74 1.03-0.993 0.293-2.047 0.53-3.16 0.71-1.113 0.173-2.263 0.26-3.45 0.26v0c-2.367 0-4.55-0.353-6.55-1.06-2-0.707-3.733-1.7-5.2-2.98-1.467-1.273-2.61-2.807-3.43-4.6-0.82-1.787-1.23-3.773-1.23-5.96v0c0-2.227 0.43-4.247 1.29-6.06 0.867-1.813 2.06-3.363 3.58-4.65 1.52-1.287 3.323-2.28 5.41-2.98 2.08-0.7 4.34-1.05 6.78-1.05v0c1.047 0 2.08 0.063 3.1 0.19 1.027 0.133 2.01 0.313 2.95 0.54 0.933 0.227 1.81 0.5 2.63 0.82 0.827 0.32 1.557 0.667 2.19 1.04v0-2.08h7.23v25.51c0 2.62-0.4 4.94-1.2 6.96-0.8 2.02-1.967 3.717-3.5 5.09-1.54 1.38-3.45 2.423-5.73 3.13-2.28 0.707-4.893 1.06-7.84 1.06v0c-1.053 0-2.15-0.043-3.29-0.13-1.14-0.093-2.283-0.227-3.43-0.4-1.147-0.167-2.28-0.37-3.4-0.61-1.113-0.233-2.183-0.503-3.21-0.81zM319.31-14.65v0c0 1.153 0.233 2.24 0.7 3.26 0.46 1.02 1.123 1.907 1.99 2.66 0.86 0.76 1.9 1.353 3.12 1.78 1.22 0.433 2.597 0.65 4.13 0.65v0c0.993 0 1.98-0.093 2.96-0.28 0.987-0.187 1.933-0.45 2.84-0.79 0.9-0.347 1.747-0.763 2.54-1.25 0.787-0.487 1.473-1.03 2.06-1.63v0-9.5c-0.733-0.587-1.507-1.083-2.32-1.49-0.813-0.407-1.643-0.74-2.49-1-0.847-0.26-1.7-0.45-2.56-0.57-0.867-0.127-1.707-0.19-2.52-0.19v0c-1.66 0-3.137 0.22-4.43 0.66-1.293 0.44-2.383 1.04-3.27 1.8-0.887 0.753-1.567 1.633-2.04 2.64-0.473 1.013-0.71 2.097-0.71 3.25z" fill="#000000" fill-rule="nonzero" stroke="none" stroke-width="1" stroke-linecap="butt" stroke-linejoin="miter" stroke-miterlimit="10" stroke-dasharray="" stroke-dashoffset="0" font-family="none" font-weight="none" font-size="none" text-anchor="none" style="mix-blend-mode: normal" data-fill-palette-color="primary" opacity="1"></path></g></svg></g></svg></g></svg></g></svg></g><g transform="matrix(1,0,0,1,108.0154092292309,0)"><svg viewBox="0 0 179.48918154153824 179.48918154153824" height="179.48918154153824" width="179.48918154153824"><g><svg xmlns="http://www.w3.org/2000/svg" xmlns:xlink="http://www.w3.org/1999/xlink" version="1.1" x="0" y="0" viewBox="3 3 94 94" style="enable-background:new 0 0 100 100;" xml:space="preserve" height="179.48918154153824" width="179.48918154153824" class="icon-icon-0" data-fill-palette-color="accent" id="icon-0"><g fill="#ffc813" data-fill-palette-color="accent"><path d="M50 18.8c-8.3 0-16.2 3.3-22.1 9.2-12.2 12.2-12.2 32 0 44.2C34 78.2 42 81.2 50 81.2c8 0 16-3 22.1-9.1 12.2-12.2 12.2-32 0-44.2C66.2 22 58.3 18.8 50 18.8zM34.2 65.8c-6.5-6.5-8.2-16.2-4.9-24.2l11.9 6.6c-0.6 2.9 0.2 6 2.4 8.2C45.4 58 47.6 59 50 59c0.6 0 1.3-0.1 1.9-0.2l6.6 11.9C50.4 74 40.8 72.3 34.2 65.8zM70.7 58.5l-11.9-6.6c0.6-2.9-0.2-6-2.4-8.2-2.2-2.2-5.3-3-8.2-2.4l-6.6-11.9c2.6-1.1 5.5-1.7 8.5-1.7 6 0 11.6 2.3 15.8 6.5C72.3 40.8 74 50.4 70.7 58.5z" fill="#000000" data-fill-palette-color="accent"></path><path d="M86.8 3H13.2C7.6 3 3 7.6 3 13.2v73.6C3 92.4 7.6 97 13.2 97h73.6C92.4 97 97 92.4 97 86.8V13.2C97 7.6 92.4 3 86.8 3zM87.5 86.8c0 0.4-0.3 0.7-0.7 0.7H13.2c-0.4 0-0.7-0.3-0.7-0.7V13.2c0-0.4 0.3-0.7 0.7-0.7h73.6c0.4 0 0.7 0.3 0.7 0.7V86.8z" fill="#000000" data-fill-palette-color="accent"></path></g></svg></g></svg></g><g></g></svg></g><defs></defs></svg><rect width="301.87789511074476" height="247.2" fill="none" stroke="none" visibility="hidden"></rect></g></svg></g></svg>